<?xml version="1.0" encoding="UTF-8"?>
<svg viewBox="0 0 570 512" xmlns="http://www.w3.org/2000/svg">
 <defs>
  <radialGradient id="a" cx="221.61" cy="270.09" r="112.34" gradientTransform="matrix(1.4997 -2.0425 2.4027 1.272 -2303.5 82.925)" gradientUnits="userSpaceOnUse">
   <stop stop-color="#2f7aff" offset="0"/>
   <stop stop-color="#0000b3" offset="1"/>
  </radialGradient>
 </defs>
 <g stroke="#000" stroke-linecap="round" stroke-linejoin="round">
  <polyline points="283.69 428.1 273.11 428.04 262.78 427.47 252.53 426.38 242.49 424.83 232.49 422.83 222.8 420.35 213.22 417.45 203.93 414.07 194.82 410.31 185.94 406.19 177.32 401.66 168.91 396.68 160.88 391.36 152.99 385.71 145.52 379.66 138.3 373.35 131.47 366.7 124.93 359.74 118.78 352.44 112.94 344.91 107.49 337.05 102.5 328.98 97.833 320.68 93.611 312.09 89.858 303.29 86.482 294.3 83.635 285.14 81.198 275.73 79.293 266.16 77.882 256.47 76.941 246.57 76.557 236.6 76.726 226.56 77.357 216.71 78.529 206.94 80.201 197.31 82.433 187.85 85.069 178.55 88.168 169.45 91.728 160.55 95.752 151.84 100.14 143.35 105.05 135.1 110.23 127.08 115.89 119.36 121.88 111.92 128.23 104.69 134.87 97.803 141.94 91.172 149.31 84.972 156.95 79.013 164.94 73.429 173.18 68.239 181.71 63.386 190.43 58.894 199.45 54.834 208.73 51.17 218.16 47.924 227.86 45.169 237.71 42.832 247.72 40.912 257.99 39.486 268.28 38.558 278.84 38.121 289.32 38.207 299.71 38.815 309.94 39.815 320.04 41.393 329.94 43.421 339.73 45.875 349.22 48.8 358.54 52.118 367.65 55.883 376.56 60.096 385.17 64.628 393.53 69.571 401.65 74.868 409.44 80.541 416.95 86.53 424.13 92.896 431.02 99.579 437.56 106.54 443.75 113.79 449.56 121.37 454.98 129.14 460.03 137.25 464.66 145.6 468.86 154.1 472.67 162.94 475.99 171.89 478.86 181.15 481.24 190.52 483.24 200.07 484.65 209.76 485.53 219.61 485.94 229.68 485.81 239.67 485.14 249.57 483.9 259.31 482.23 268.94 480.1 278.38 477.46 287.67 474.27 296.8 470.7 305.7 466.78 314.39 462.29 322.9 457.48 331.13 452.24 339.11 446.64 346.86 440.61 354.37 434.3 361.54 427.56 368.44 420.53 375.02 413.18 381.31 405.52 387.18 397.59 392.8 389.31 398.04 380.78 402.9 372.01 407.36 362.98 411.41 353.8 415.06 344.31 418.27 334.63 421.12 324.78 423.45 314.72 425.34 304.54 426.74 294.15 427.69 283.69 428.1" fill="url(#a)" stroke-width=".688"/>
  <g transform="matrix(2.189 0 0 2.1507 -102.89 -327.55)" fill="#0f0" fill-rule="evenodd" stroke-width=".445">
   <polyline points="179.74 317.19 179.4 318.16 179.28 322.43 178.4 324.4 175.17 325.55 173.78 328.27 173.85 332.24 176.37 334.15 180.17 336.45 184.33 340.53 187.05 343.71 189.2 343.83 189.41 346.17 188.36 348.53 188.75 350.15 188.98 350.33 198.32 348.48 207.32 345.78 215.98 342.15 226.2 336.52 235.26 329.89 235.42 327.2 236.96 323.21 239.8 319.21 241.38 316.85 239.04 315.08 237.78 314.91 234.76 316.23 228.84 317.57 224.01 318.22 220.03 313.6 213.74 313.72 209.09 312.92 203.68 310.65 199.39 311.64 193.49 311.73 191.17 312.84 186.85 311.33 183.99 312.63 181.52 314.64 180.14 316.07 177.93 315.6 174.52 315.31 171.62 313.2 171.08 311.76 171.93 309.24 172.1 307.09 170.11 305.66 167.06 304.83 163.66 304.88 163.27 303.26 164.33 301.25 164.83 297.83 162.82 296.62 160.16 297.55 159.1 299.37 157.15 299.94 154.62 299.09 151.17 296.29 150.79 292.7 151.26 289.45 154.11 285.62 157.86 284.83 160.2 285.14 161.81 286.03 163.42 285.82 165.22 284.88 168.26 285.17 171.13 286.39 173.16 289.41 174.78 291.72 176.57 291.16 176.01 288.29 174.89 285.96 175.4 283.07 176.8 280.7 180.33 278.14 182.46 276.3 182.62 272.89 184.02 269.07 185.77 266.5 187.02 266.14 187.73 264.33 189.47 261.6 191.07 260.85 192.7 261.71 193.94 260.27 196.61 258.78 198.56 257.66 197.82 255.87 195.13 256.29 193.88 255.93 193.69 253.98 191.89 253.47 190.11 254.92 188.16 255.87 187.95 254.98 189.9 252.95 193.1 251.28 195.08 251.08 197.77 249.93 198.63 247.95 197.7 245.42 194.98 242.24 190.09 238.54 187.21 238.24 185.59 237.92 183.96 235.79 179.11 233.72 177.32 234.28 177.34 237.35 177.57 241.3 178.85 242.71 177.8 244.34 177.32 247.78 176.81 250.85 174.81 249.07 173.37 246.76 173.15 244.07 170.81 243.03 167.2 242.19 165.91 240.25 166.23 236.1 168.35 232.81 171.72 229.53 174.74 227.3 176.13 225.5 174.51 223.72 172.37 224.48 170.03 223.79 169.64 221.45 169.43 219.3 167.82 219.32 167.33 222.41 165.89 223.69 164.66 222.81 164.59 219.03 163.67 216.55 161.68 215.49 160.05 212.99 157.37 213.23 155.76 214.7 157.75 216.44 158.15 218.6 160.5 220.36 160.17 222.71 152.92 217.09 149.13 213.74 147.12 210.88 147.11 208.35 146.33 204.97 144.7 204.26 141.67 204.32 140.41 205.06 138.79 204.73 137.01 204.92 136.33 206.74 135.61 208.01 132.19 207.36 130.06 208.82 128.85 211.38 128.15 213.54 126.18 213.23 124.18 211.64 124.92 213.97 128 215.35 131.41 216.57 134.3 218.14 135.41 221.16 135.63 224.57 134.45 229.63 132.89 234.87 132.57 239.02 132.62 241.38 133.19 243.87 131.06 246.43 129.12 249.72 127.21 254.06 126.38 259.29 125.75 266.68 126.5 269.36 128 274.37 129.11 278.3 130.79 282.97 132.95 285.27 134.76 285.95 132.94 283.82 132 281.14 131.45 278.08 130.88 275.4 132.29 275.03 133.04 277.17 134.34 282.37 137.11 287.9 137.87 290.94 137.16 292.93 138.83 295.42 142.06 296.98 146.96 301.4 149.99 302.61 154.69 304.13 160.07 306.38 162.8 308.15 165.32 310.42 167.35 314.88 171.31 316.44 173.84 317.29 176.7 316.9 179.74 317.19"/>
   <polyline points="169.64 296.86 171.79 295.92 175.21 296.75 179.16 297.96 182.2 298.25 184.91 299.48 184.21 300.92 180.98 301.34 178.29 299.4 175.03 297.82 169.64 296.86"/>
   <polyline points="185.81 300.35 185.67 301.79 188 302.67 190.16 302.98 193.9 302.38 191.38 300.96 191.55 300.08 190.1 299.55 185.81 300.35"/>
   <polyline points="199.17 247.75 200.43 249 202.79 250.93 205.31 253.03 206.05 254.64 202.09 254.72 199.58 251.89 198.65 249.91 199.17 247.75"/>
   <polyline points="182.32 233.13 179.99 232.44 177.11 231.94 179.96 229.75 180.1 226.67 178.81 224.73 175.39 223.7 173.05 222.66 170.7 219.63 172.64 217.79 175.35 218.49 178.76 220.24 182.01 221.96 183.3 224.82 184.39 225.69 187.08 226.91 188.74 229.77 187.31 231.4 186.82 233.76 184.68 234.15 182.32 233.13"/>
   <polyline points="195.38 230.37 198.62 232.46 200.07 233.18 203.29 232.21 207.19 230.87 203.42 229.51 202.15 227.53 202.46 224.11 202.75 218.18 204.88 216.16 204.84 212.93 201.41 209.57 197.79 206.93 193.45 205.56 189.86 203.29 185.72 203.19 182.52 204.31 180.92 206.33 179.12 206.54 178.96 205.1 176.44 205.14 173.41 206.45 173.96 208.44 172.57 211.88 174.04 214.02 176.9 215.76 178.13 211.41 179.53 209.77 180.48 212.81 182.99 215.28 185.33 216.33 188.97 219.13 192.05 221.96 192.82 227.36 194.99 228.56 195.38 230.37"/>
   <polyline points="207.55 215.58 207.97 218.62 209.04 220.24 211.01 221.09 213.51 218.18 214.52 214.55 212.36 212.97 210.03 213.73 208.98 215.17 207.55 215.58"/>
   <polyline points="245.56 200.69 246.84 203.74 246.69 206.77 247.43 209.29 249.97 210.87 249.79 212.86 247.67 213.59 246.24 213.46 244.3 214.39 248.25 216.13 247.73 217.75 244.14 217.8 244.52 219.79 245.44 222.27 245.5 225.16 247.13 227.82 248.41 230.34 250.41 232.12 249.52 233.36 249.18 234.63 248.5 237.37 246.37 239.02 242.94 236.92 242.74 234.92 240.73 233.17 240.71 230.65 242.47 228.8 242.28 226.13 239.02 225.28 237.41 225.31 236.32 223.52 236.64 219.37 234.26 214.92 231.91 213.34 231.14 210.5 230.54 206.54 227.65 202.25 226.89 199.04 224.54 198.18 222.04 196.78 220.58 195.9 219.69 196.84 220.97 198.25 218.85 199.89 220.81 200.39 223 201.99 225.35 204.29 228.24 205.86 225.38 207.17 224.51 208.99 221.98 208.48 218.94 206.93 216.54 202.99 214.72 201.59 210.6 199.52 207.52 197.94 205.36 194.91 207.83 193.44 212.3 192.65 211.75 190.67 209.95 190.15 209.43 191.24 206.36 191.3 206.88 189.31 204.91 188.46 203.63 186.67 200.02 184.38 194.59 180.69 193.51 181.28 192.49 182.55 190.16 183.3 188.69 182.62 186.01 182.13 182.44 182.38 180.65 183.48 176.91 184.08 173.5 183.59 171.15 182.74 170.79 180.95 167.18 180.84 165.77 182.13 162.01 182.38 158.61 183.16 158.64 185.12 156.85 186.22 153.09 186.66 151.68 187.76 152.24 189.55 150.63 190.49 146.16 191.1 145.82 192.72 145.67 194.73 144.24 195.63 141.77 198.2 139.98 200.02 137.69 201.88 134.83 202.45 135.54 201.37 136.94 199.19 136.56 197.92 134.25 197.98 132.98 196.19 131.86 194.39 133.63 192.4 135.57 190.75 137.18 190.54 138.62 187.81 138.2 184.77 140.35 183.82 143.36 182.34 143.51 178.93 141.87 177.49 140.26 176.98 148.6 173.98 155.62 172.03 162.43 170.71 170.96 169.73 178.54 169.54 187.43 170.12 198.46 172.01 209.24 175.26 216.58 178.43 224.16 182.43 230.57 186.62 236.59 191.13 241.87 196.1 245.41 199.83 245.56 200.69"/>
   <polyline points="224.72 211.68 223.12 212.43 223.83 214.02 225.5 216.51 226.05 218.3 226.81 220.98 229.35 223.1 231.11 223.25 230.4 221.66 228.2 219.72 228.02 218.61 230.19 219.51 232.54 220.71 234.69 221.4 234.68 219.6 234.75 219.42 234.83 219.24 234.88 219.04 234.88 218.85 234.89 218.47 234.85 218.11 234.77 217.75 234.71 217.48 234.65 217.33 234.63 217.25 233.19 216.39 228.69 214.5 226.71 213.6 224.72 211.68"/>
   <polyline points="251.74 207.74 251.58 210.12 252.33 212.8 251.61 214.26 250.38 214.29 251.47 216.08 253.65 218.89 253.86 222.68 251.9 222.18 250.64 222.38 250.34 226.7 250.57 230.46 250.05 232.27 250.25 235.52 249.19 237.34 248.53 239.68 249.62 242.91 251.47 247.19 251.33 250.27 251.23 256.57 252.02 262.29 253.51 266.95 255.89 272.13 258.97 275.51 262.58 276.34 264.68 273.04 266.1 270.88 268.06 270 268.53 264.19 268.59 258.81 268.35 253.29 267.66 246.8 266.2 239.18 264.38 232.67 262.34 226.9 259.78 221.15 257.17 216.05 253.99 210.94 251.74 207.74"/>
  </g>
 </g>
</svg>
